<?xml version="1.0" standalone="no"?>
<!DOCTYPE svg PUBLIC "-//W3C//DTD SVG 20010904//EN"
 "http://www.w3.org/TR/2001/REC-SVG-20010904/DTD/svg10.dtd">
<svg version="1.0" xmlns="http://www.w3.org/2000/svg"
 width="32.000000pt" height="32.000000pt" viewBox="0 0 32.000000 32.000000"
 preserveAspectRatio="xMidYMid meet">

<g transform="translate(0.000000,32.000000) scale(0.100000,-0.100000)"
fill="#000000" stroke="none">
<path d="M227 243 c-9 -2 -15 -9 -11 -14 7 -13 -57 -108 -73 -109 -6 0 -15 5
-19 11 -4 7 -15 1 -30 -17 -31 -38 -30 -54 1 -24 20 18 27 21 39 11 12 -10 21
-2 53 43 21 30 44 55 51 56 6 0 12 4 12 9 0 5 3 16 6 25 6 16 3 17 -29 9z"/>
<path d="M124 182 c18 -21 20 -21 38 -6 10 10 18 19 18 22 0 3 -8 -2 -18 -11
-17 -15 -20 -15 -37 1 -19 17 -19 17 -1 -6z"/>
</g>
</svg>
